<?xml version="1.0" encoding="UTF-8" standalone="no"?>

<svg width="1110" height="600" xmlns="http://www.w3.org/2000/svg">
    <!-- Title box -->
    <rect x="30" y="0" width="270" height="140" rx="10" ry="10" fill="#A888C7" />
    <text x="50" y="80" text-anchor="start" font-size="30" fill="black">Determinants</text>
    <!-- Vertical line -->
    <line x1="45" x2="45" y1="140" y2="390" stroke="black" stroke-width="2"/>
    <!-- Horizontal lines -->
    <line x1="45" x2="60" y1="230" y2="230" stroke="black" stroke-width="2"/>
    <line x1="45" x2="60" y1="390" y2="390" stroke="black" stroke-width="2"/>
    <!-- Object boxes, two -->
    <rect x="60" y="160" width="240" height="140" rx="10" ry="10" stroke="black" stroke-width="2" fill="white" />
    <text x="80" y="240" text-anchor="start" font-size="24" fill="black">Barriers</text>
    <rect x="60" y="320" width="240" height="140" rx="10" ry="10" stroke="black" stroke-width="2" fill="white" />
    <text x="80" y="400" text-anchor="start" font-size="24" fill="black">Facilitators</text>
    <!-- Flag -->
    <path d="M 0 480 h 330 l 60 60 l -60 60 h -330 l 60 -60 l -60 -60 z" fill="#A888C7" />
    <text x="80" y="520" text-anchor="start" font-size="24" fill="black">Health Equity</text>
    <text x="80" y="550" text-anchor="start" font-size="24" fill="black">Implementation</text>
    <text x="80" y="580" text-anchor="start" font-size="24" fill="black">Framework</text>


    <!-- Title box -->
    <rect x="390" y="0" width="270" height="140" rx="10" ry="10" fill="#FFD884" />
    <text x="410" y="80" text-anchor="start" font-size="30" fill="black">Processes</text>
    <!-- Vertical line -->
    <line x1="405" x2="405" y1="140" y2="390" stroke="black" stroke-width="2"/>
    <!-- Horizontal lines -->
    <line x1="405" x2="420" y1="230" y2="230" stroke="black" stroke-width="2"/>
    <line x1="405" x2="420" y1="390" y2="390" stroke="black" stroke-width="2"/>
    <!-- Object boxes, two -->
    <rect x="420" y="160" width="240" height="140" rx="10" ry="10" stroke="black" stroke-width="2" fill="white" />
    <text x="440" y="210" text-anchor="start" font-size="24" fill="black">Ways to</text>
    <text x="440" y="240" text-anchor="start" font-size="24" fill="black">enhance</text>
    <text x="440" y="270" text-anchor="start" font-size="24" fill="black">implementation</text>
    <rect x="420" y="320" width="240" height="140" rx="10" ry="10" stroke="black" stroke-width="2" fill="white" />
    <text x="440" y="380" text-anchor="start" font-size="24" fill="black">Ways to</text>
    <text x="440" y="410" text-anchor="start" font-size="24" fill="black">enhance equity</text>
    <!-- Flag -->
    <path d="M 360 480 h 330 l 60 60 l -60 60 h -330 l 60 -60 l -60 -60 z" fill="#FFD884" />
    <text x="440" y="530" text-anchor="start" font-size="24" fill="black">Implementation</text>
    <text x="440" y="560" text-anchor="start" font-size="24" fill="black">Facilitation</text>


    <!-- Title box -->
    <rect x="750" y="0" width="270" height="140" rx="10" ry="10" fill="#78CEE9" />
    <text x="770" y="80" text-anchor="start" font-size="30" fill="black">Evaluation</text>
    <!-- Vertical line -->
    <line x1="765" x2="765" y1="140" y2="390" stroke="black" stroke-width="2"/>
    <!-- Horizontal lines -->
    <line x1="765" x2="780" y1="230" y2="230" stroke="black" stroke-width="2"/>
    <line x1="765" x2="780" y1="390" y2="390" stroke="black" stroke-width="2"/>
    <!-- Object boxes, two -->
    <rect x="780" y="160" width="240" height="140" rx="10" ry="10" stroke="black" stroke-width="2" fill="white" />
    <text x="800" y="210" text-anchor="start" font-size="24" fill="black">Assessment of</text>
    <text x="800" y="240" text-anchor="start" font-size="24" fill="black">implementation</text>
    <text x="800" y="270" text-anchor="start" font-size="24" fill="black">success</text>
    <rect x="780" y="320" width="240" height="140" rx="10" ry="10" stroke="black" stroke-width="2" fill="white" />
    <text x="800" y="355" text-anchor="start" font-size="24" fill="black">Assessment of</text>
    <text x="800" y="385" text-anchor="start" font-size="24" fill="black">health equity</text>
    <text x="800" y="415" text-anchor="start" font-size="24" fill="black">(e.g., reach,</text>
    <text x="800" y="445" text-anchor="start" font-size="24" fill="black">retention)</text>
    <!-- Flag -->
    <path d="M 720 480 h 330 l 60 60 l -60 60 h -330 l 60 -60 l -60 -60 z" fill="#78CEE9" />
    <text x="800" y="530" text-anchor="start" font-size="24" fill="black">Proctor's Taxonomy</text>
    <text x="800" y="560" text-anchor="start" font-size="24" fill="black">of Outcomes</text>
</svg>
