<?xml version="1.0" encoding="UTF-8" standalone="no"?>
<!-- Created with Inkscape (http://www.inkscape.org/) -->

<svg
   width="900"
   height="450"
   viewBox="0 0 900 450"
   version="1.1"
   id="svg5"
   xmlns="http://www.w3.org/2000/svg"
   xmlns:svg="http://www.w3.org/2000/svg">
  <defs
     id="defs2">
    <rect
       x="570"
       y="-40"
       width="150"
       height="90"
       id="rect28691" />
  </defs>
  <g
     id="layer3"
     style="display:inline">
    <rect
       style="display:inline;fill:#ffffff;fill-opacity:1;stroke:#000000;stroke-width:2.81319;stroke-miterlimit:4;stroke-dasharray:none"
       id="rect5217-6-3"
       width="259.08673"
       height="314.20609"
       x="11.800505"
       y="53.804714"
       ry="12.568243" />
    <rect
       style="display:inline;opacity:1;fill:#a888c7;fill-opacity:1;stroke:#000000;stroke-width:2.87407;stroke-miterlimit:4;stroke-dasharray:none"
       id="rect5372"
       width="259.08673"
       height="83.788284"
       x="1.437034"
       y="1.4370333"
       ry="41.894142" />
    <ellipse
       style="display:inline;fill:#a888c7;fill-opacity:1;stroke:#000000;stroke-width:2.75637;stroke-miterlimit:4;stroke-dasharray:none"
       id="path5627"
       cx="52.959946"
       cy="160.33723"
       rx="10.36347"
       ry="10.473536" />
    <ellipse
       style="display:inline;fill:#a888c7;fill-opacity:1;stroke:#000000;stroke-width:2.75637;stroke-miterlimit:4;stroke-dasharray:none"
       id="path5627-9"
       cx="52.959946"
       cy="244.12552"
       rx="10.36347"
       ry="10.473536" />
    <path
       style="fill:#a888c7;fill-opacity:1;stroke:#000000;stroke-width:2.89671;stroke-linecap:butt;stroke-linejoin:miter;stroke-miterlimit:4;stroke-dasharray:none;stroke-opacity:1"
       d="m 5.2020208,352.74142 c -5.00459824,2.03909 -5.00459824,6.11606 1.021e-4,12.2316 5.0047001,6.11554 15.0121731,14.2693 20.0152651,22.42333 5.003092,8.15402 5.003092,16.30781 -6.97e-4,24.46109 -5.003789,8.15329 -15.011271,16.30706 -20.0152695,22.42329 -5.00399894,6.11623 -5.00399894,10.19311 7.043e-4,12.23098 5.0047032,2.03787 15.0121642,2.03787 57.5455792,2.03787 42.533415,0 117.589525,0 162.623665,-6.1157 45.03413,-6.11569 60.04535,-18.34634 67.55097,-28.53811 7.50562,-10.19177 7.50562,-18.34556 4.5e-4,-28.53811 -7.50516,-10.19254 -22.5164,-22.4232 -67.55173,-28.53926 -45.03533,-6.11606 -120.09146,-6.11606 -162.624214,-6.11606 -42.532754,0 -52.540227,0 -57.5448252,2.03908 z"
       id="path4356-6" />
    <rect
       style="display:inline;fill:#ffffff;fill-opacity:1;stroke:#000000;stroke-width:2.81319;stroke-miterlimit:4;stroke-dasharray:none"
       id="rect5217-6-3-1"
       width="259.08673"
       height="314.20609"
       x="311.80051"
       y="53.80471"
       ry="12.568243" />
    <rect
       style="display:inline;fill:#ffd884;fill-opacity:1;stroke:#000000;stroke-width:2.87407;stroke-miterlimit:4;stroke-dasharray:none"
       id="rect5372-2"
       width="259.08673"
       height="83.788284"
       x="301.43704"
       y="1.437035"
       ry="41.894142" />
    <ellipse
       style="display:inline;fill:#ffd884;fill-opacity:1;stroke:#000000;stroke-width:2.75637;stroke-miterlimit:4;stroke-dasharray:none"
       id="path5627-93"
       cx="352.95993"
       cy="160.33722"
       rx="10.36347"
       ry="10.473536" />
    <ellipse
       style="display:inline;fill:#ffd884;fill-opacity:1;stroke:#000000;stroke-width:2.75637;stroke-miterlimit:4;stroke-dasharray:none"
       id="path5627-9-1"
       cx="352.95993"
       cy="244.12552"
       rx="10.36347"
       ry="10.473536" />
    <path
       style="display:inline;fill:#ffd884;fill-opacity:1;stroke:#000000;stroke-width:2.89671;stroke-linecap:butt;stroke-linejoin:miter;stroke-miterlimit:4;stroke-dasharray:none;stroke-opacity:1"
       d="m 305.20201,352.74142 c -5.0046,2.03908 -5.0046,6.11605 1e-4,12.23159 5.0047,6.11554 15.01218,14.2693 20.01527,22.42333 5.00309,8.15402 5.00309,16.30781 -7e-4,24.46109 -5.00379,8.15329 -15.01127,16.30706 -20.01527,22.42329 -5.004,6.11623 -5.004,10.19311 7e-4,12.23098 5.00471,2.03787 15.01217,2.03787 57.54559,2.03787 42.53341,0 117.58952,0 162.62366,-6.1157 45.03413,-6.11569 60.04535,-18.34634 67.55097,-28.53811 7.50562,-10.19177 7.50562,-18.34556 4.5e-4,-28.53811 -7.50516,-10.19254 -22.5164,-22.4232 -67.55173,-28.53926 -45.03533,-6.11606 -120.09146,-6.11606 -162.62422,-6.11606 -42.53275,0 -52.54022,0 -57.54482,2.03909 z"
       id="path4356-6-9" />
    <rect
       style="display:inline;fill:#ffffff;fill-opacity:1;stroke:#000000;stroke-width:2.81319;stroke-miterlimit:4;stroke-dasharray:none"
       id="rect5217-6-3-7"
       width="259.08673"
       height="314.20609"
       x="611.80048"
       y="53.804726"
       ry="12.568243" />
    <rect
       style="display:inline;fill:#78cee9;fill-opacity:1;stroke:#000000;stroke-width:2.87407;stroke-miterlimit:4;stroke-dasharray:none"
       id="rect5372-8"
       width="259.08673"
       height="83.788284"
       x="601.43701"
       y="1.437035"
       ry="41.894142" />
    <ellipse
       style="display:inline;fill:#78cee9;fill-opacity:1;stroke:#000000;stroke-width:2.75637;stroke-miterlimit:4;stroke-dasharray:none"
       id="path5627-4"
       cx="652.95996"
       cy="160.33723"
       rx="10.36347"
       ry="10.473536" />
    <ellipse
       style="display:inline;fill:#78cee9;fill-opacity:1;stroke:#000000;stroke-width:2.75637;stroke-miterlimit:4;stroke-dasharray:none"
       id="path5627-9-5"
       cx="652.95996"
       cy="244.12553"
       rx="10.36347"
       ry="10.473536" />
    <path
       style="display:inline;fill:#78cee9;fill-opacity:1;stroke:#000000;stroke-width:2.89671;stroke-linecap:butt;stroke-linejoin:miter;stroke-miterlimit:4;stroke-dasharray:none;stroke-opacity:1"
       d="m 605.20201,352.74144 c -5.0046,2.03908 -5.0046,6.11605 10e-5,12.23159 5.0047,6.11554 15.01218,14.2693 20.01527,22.42333 5.00309,8.15402 5.00309,16.30781 -7e-4,24.46109 -5.00379,8.15329 -15.01127,16.30706 -20.01527,22.42329 -5.004,6.11623 -5.004,10.19311 7.1e-4,12.23098 5.0047,2.03787 15.01216,2.03787 57.54558,2.03787 42.53341,0 117.58952,0 162.62366,-6.1157 45.03413,-6.11569 60.04535,-18.34634 67.55097,-28.53811 7.50562,-10.19177 7.50562,-18.34556 4.5e-4,-28.53811 -7.50516,-10.19254 -22.5164,-22.4232 -67.55173,-28.53926 -45.03533,-6.11606 -120.09146,-6.11606 -162.62422,-6.11606 -42.53275,0 -52.54022,0 -57.54482,2.03909 z"
       id="path4356-6-0" />
  </g>
  <g
     id="layer1"
     style="display:inline">
    <text
       xml:space="preserve"
       style="font-style:normal;font-weight:normal;font-size:26.6667px;line-height:1.25;font-family:sans-serif;fill:#000000;fill-opacity:1;stroke:none"
       x="23.499329"
       y="52.260441"
       id="text15149"><tspan
         id="tspan15147"
         x="23.499329"
         y="52.260441"
         style="font-style:normal;font-variant:normal;font-weight:bold;font-stretch:normal;font-size:26.6667px;font-family:sans-serif;-inkscape-font-specification:'sans-serif Bold'">Determinants</tspan></text>
    <text
       xml:space="preserve"
       style="font-style:normal;font-weight:normal;font-size:26.6667px;line-height:1.25;font-family:sans-serif;fill:#000000;fill-opacity:1;stroke:none"
       x="326.27634"
       y="51.440128"
       id="text15149-6"><tspan
         id="tspan15147-1"
         x="326.27634"
         y="51.440128"
         style="font-style:normal;font-variant:normal;font-weight:bold;font-stretch:normal;font-size:26.6667px;font-family:sans-serif;-inkscape-font-specification:'sans-serif Bold'">Processes</tspan></text>
    <text
       xml:space="preserve"
       style="font-style:normal;font-weight:normal;font-size:26.6667px;line-height:1.25;font-family:sans-serif;fill:#000000;fill-opacity:1;stroke:none"
       x="627.30414"
       y="52.260441"
       id="text15149-8"><tspan
         id="tspan15147-7"
         x="627.30414"
         y="52.260441"
         style="font-style:normal;font-variant:normal;font-weight:bold;font-stretch:normal;font-size:26.6667px;font-family:sans-serif;-inkscape-font-specification:'sans-serif Bold'">Evaluation</tspan></text>
    <text
       xml:space="preserve"
       id="text28689"
       style="font-style:normal;font-weight:normal;font-size:40px;line-height:1.25;font-family:sans-serif;white-space:pre;shape-inside:url(#rect28691);fill:#000000;fill-opacity:1;stroke:none" />
    <text
       xml:space="preserve"
       style="font-style:normal;font-weight:normal;font-size:18.6667px;line-height:1.25;font-family:sans-serif;white-space:pre;inline-size:190;fill:#000000;fill-opacity:1;stroke:none"
       x="50"
       y="380"
       id="text35901"><tspan
         x="50"
         y="380"
         id="tspan979">Health Equity </tspan><tspan
         x="50"
         y="403.33337"
         id="tspan981">Implementation </tspan><tspan
         x="50"
         y="426.66675"
         id="tspan983">Framework</tspan></text>
    <text
       xml:space="preserve"
       style="font-style:normal;font-weight:normal;font-size:18.6667px;line-height:1.25;font-family:sans-serif;white-space:pre;inline-size:190;fill:#000000;fill-opacity:1;stroke:none"
       x="50"
       y="380"
       id="text35901-0"
       transform="translate(325.13093,-228.08678)"><tspan
         x="50"
         y="380"
         id="tspan985">Ways to enhance </tspan><tspan
         x="50"
         y="403.33337"
         id="tspan987">implementation</tspan></text>
    <text
       xml:space="preserve"
       style="font-style:normal;font-weight:normal;font-size:18.6667px;line-height:1.25;font-family:sans-serif;white-space:pre;inline-size:190;fill:#000000;fill-opacity:1;stroke:none"
       x="50"
       y="380"
       id="text35901-0-2"
       transform="translate(323.92162,-140.71433)"><tspan
         x="50"
         y="380"
         id="tspan989">Ways to enhance </tspan><tspan
         x="50"
         y="403.33337"
         id="tspan991">equity</tspan></text>
    <text
       xml:space="preserve"
       style="font-style:normal;font-weight:normal;font-size:18.6667px;line-height:1.25;font-family:sans-serif;white-space:pre;inline-size:190;fill:#000000;fill-opacity:1;stroke:none"
       x="50"
       y="380"
       id="text35901-0-3"
       transform="translate(629.31394,-238.40389)"><tspan
         x="50"
         y="380"
         id="tspan993">Assessment of </tspan><tspan
         x="50"
         y="403.33337"
         id="tspan995">implementation </tspan><tspan
         x="50"
         y="426.66675"
         id="tspan997">success</tspan></text>
    <text
       xml:space="preserve"
       style="font-style:normal;font-weight:normal;font-size:18.6667px;line-height:1.25;font-family:sans-serif;white-space:pre;inline-size:190;fill:#000000;fill-opacity:1;stroke:none"
       x="50"
       y="380"
       id="text35901-0-7"
       transform="translate(627.8336,-154.74389)"><tspan
         x="50"
         y="380"
         id="tspan999">Assessment of </tspan><tspan
         x="50"
         y="403.33337"
         id="tspan1001">health equity (e.g., </tspan><tspan
         x="50"
         y="426.66675"
         id="tspan1003">reach, retention)</tspan></text>
    <text
       xml:space="preserve"
       style="font-style:normal;font-weight:normal;font-size:18.6667px;line-height:1.25;font-family:sans-serif;white-space:pre;inline-size:190;fill:#000000;fill-opacity:1;stroke:none"
       x="50"
       y="380"
       id="text35901-0-5"
       transform="translate(30.871589,-214.78597)"><tspan
         x="50"
         y="380"
         id="tspan1005">Barriers</tspan></text>
    <text
       xml:space="preserve"
       style="font-style:normal;font-weight:normal;font-size:18.6667px;line-height:1.25;font-family:sans-serif;white-space:pre;inline-size:190;fill:#000000;fill-opacity:1;stroke:none"
       x="50"
       y="380"
       id="text35901-0-9"
       transform="translate(30.729571,-131.43107)"><tspan
         x="50"
         y="380"
         id="tspan1007">Facilitators</tspan></text>
    <text
       xml:space="preserve"
       style="font-style:normal;font-weight:normal;font-size:18.6667px;line-height:1.25;font-family:sans-serif;white-space:pre;inline-size:190;fill:#000000;fill-opacity:1;stroke:none"
       x="50"
       y="380"
       id="text35901-9"
       transform="translate(301.86395,13.031188)"><tspan
         x="50"
         y="380"
         id="tspan1009">Implementation </tspan><tspan
         x="50"
         y="403.33337"
         id="tspan1011">Facilitation</tspan></text>
    <text
       xml:space="preserve"
       style="font-style:normal;font-weight:normal;font-size:18.6667px;line-height:1.25;font-family:sans-serif;white-space:pre;inline-size:190;fill:#000000;fill-opacity:1;stroke:none"
       x="50"
       y="380"
       id="text35901-2"
       transform="translate(605.77112,12.416216)"><tspan
         x="50"
         y="380"
         id="tspan1013">Proctor's Taxonomy </tspan><tspan
         x="50"
         y="403.33337"
         id="tspan1015">of Outcomes</tspan></text>
    <text
       xml:space="preserve"
       style="font-style:normal;font-weight:normal;font-size:40px;line-height:1.25;font-family:sans-serif;fill:#000000;fill-opacity:1;stroke:none"
       x="390"
       y="230"
       id="text52248"><tspan
         id="tspan52246"
         x="390"
         y="230" /></text>
  </g>
</svg>
