<?xml version="1.0" standalone="no"?>
<!DOCTYPE svg PUBLIC "-//W3C//DTD SVG 20010904//EN"
 "http://www.w3.org/TR/2001/REC-SVG-20010904/DTD/svg10.dtd">
<svg version="1.0" xmlns="http://www.w3.org/2000/svg"
 width="816.000000pt" height="816.000000pt" viewBox="0 0 816.000000 816.000000"
 preserveAspectRatio="xMidYMid meet">
<metadata>
Created by potrace 1.14, written by Peter Selinger 2001-2017
</metadata>
<g transform="translate(0.000000,816.000000) scale(0.100000,-0.100000)"
fill="#000000" stroke="none">
<path d="M20 4295 c0 -3674 1 -3865 18 -3866 108 -6 1595 -2 1599 4 8 13 7
493 -1 505 -3 6 -2 13 3 17 7 4 7 15 1 31 -6 14 -7 23 -2 21 9 -6 7 156 -2
171 -3 6 -2 13 3 17 7 4 7 15 1 31 -6 14 -7 23 -2 21 6 -4 8 119 2 141 -1 4
-1 12 0 17 5 25 2 804 -4 813 -3 6 -2 13 3 17 7 4 7 15 1 31 -6 14 -7 23 -2
21 9 -6 7 156 -2 171 -3 6 -2 13 3 17 7 4 7 15 1 31 -6 14 -7 23 -2 21 6 -4 8
119 2 141 -1 4 -1 12 0 17 5 25 2 484 -4 493 -3 6 -2 13 3 17 7 4 7 15 1 31
-6 14 -7 23 -2 21 9 -6 7 156 -2 171 -3 6 -2 13 3 17 7 4 7 15 1 31 -6 14 -7
23 -2 21 6 -4 8 119 2 141 -1 4 -1 12 0 17 1 6 3 64 4 130 l1 120 165 1 165 2
52 -55 c67 -70 136 -175 189 -288 56 -122 134 -363 134 -418 0 -13 4 -27 9
-32 5 -6 12 -31 14 -57 3 -25 8 -52 12 -58 4 -6 8 -24 10 -38 2 -15 5 -38 8
-52 3 -14 8 -41 11 -60 3 -19 8 -46 11 -60 3 -14 7 -41 9 -61 2 -20 7 -42 10
-48 4 -6 4 -15 1 -21 -3 -5 -1 -10 5 -10 6 0 8 -5 5 -10 -4 -6 -2 -32 4 -58 6
-26 13 -62 16 -80 12 -78 17 -102 35 -191 11 -51 17 -97 15 -102 -3 -4 -1 -10
4 -13 4 -3 11 -25 15 -48 8 -52 42 -195 63 -263 103 -344 206 -560 369 -775
86 -114 253 -277 344 -336 25 -16 47 -31 50 -34 15 -16 136 -88 163 -97 9 -3
17 -9 17 -14 0 -5 5 -9 11 -9 6 0 39 -13 73 -29 132 -62 296 -122 402 -146 11
-2 44 -11 74 -20 30 -9 66 -18 80 -20 29 -4 74 -13 110 -20 14 -3 41 -7 60
-10 19 -3 48 -7 64 -10 15 -3 47 -8 70 -10 22 -3 59 -7 81 -10 163 -21 356
-26 1144 -28 l764 -2 2 -150 c1 -82 3 -151 3 -152 1 -1 19 14 40 32 20 19 40
35 43 35 3 0 17 10 31 23 32 28 53 45 103 82 49 37 83 65 106 87 16 15 57 41
69 43 3 1 32 27 65 58 33 31 66 57 73 57 6 0 12 4 12 8 0 5 19 22 43 39 23 17
56 42 72 56 17 14 86 69 155 123 69 54 127 101 130 104 3 3 23 19 45 35 22 17
42 32 45 35 8 8 153 123 185 145 15 11 35 27 44 36 12 12 123 99 216 172 6 4
21 17 35 28 14 11 46 37 72 57 27 20 48 39 48 42 -1 3 -40 37 -87 75 -47 39
-92 76 -99 83 -7 6 -18 12 -25 12 -7 0 -9 3 -5 7 3 4 -2 12 -13 17 -21 12
-101 77 -143 118 -15 14 -28 23 -28 20 0 -4 -4 -2 -8 3 -10 14 -129 115 -136
115 -3 0 -16 10 -29 23 -13 12 -43 38 -66 57 -24 19 -48 40 -55 45 -6 6 -27
22 -46 36 -19 15 -44 35 -55 46 -11 10 -38 32 -60 48 -22 17 -44 35 -50 41 -5
6 -39 33 -75 60 -36 27 -69 54 -75 60 -5 6 -62 51 -125 100 -63 49 -119 94
-125 100 -5 6 -50 41 -100 79 -49 38 -98 76 -107 84 -9 9 -23 21 -30 26 -7 6
-31 25 -54 42 l-41 32 1 -245 c1 -137 -3 -248 -8 -251 -13 -9 -847 -6 -941 2
-83 8 -120 12 -120 15 0 1 -11 3 -25 4 -80 10 -194 40 -265 71 -16 7 -54 23
-82 35 -29 12 -53 26 -53 31 0 5 -4 9 -9 9 -38 0 -180 130 -246 225 -46 65
-125 222 -125 248 0 7 -5 18 -12 25 -7 7 -9 12 -5 12 4 0 1 17 -7 37 -12 32
-26 85 -28 103 0 3 -6 25 -13 50 -8 25 -16 63 -19 85 -3 22 -8 54 -11 70 -7
36 -22 126 -29 175 -3 19 -8 46 -11 60 -2 14 -11 61 -19 105 -49 265 -110 402
-229 511 l-56 52 37 8 c20 4 42 9 47 10 14 5 97 25 116 29 36 7 176 59 206 76
18 10 33 16 33 14 0 -5 222 106 230 115 3 3 37 25 77 49 40 23 77 49 84 57 6
8 17 14 24 14 8 0 15 3 17 8 2 4 23 23 48 42 86 67 182 159 261 250 58 67 159
205 159 217 0 3 6 14 14 22 28 31 150 290 161 341 2 8 4 15 5 15 1 0 3 7 6 15
50 180 51 185 59 235 3 17 10 54 15 83 5 29 9 56 9 60 -1 4 0 9 1 12 10 23 15
412 6 490 -4 30 -9 76 -12 101 -2 25 -7 56 -10 70 -2 13 -7 38 -9 54 -2 17
-16 73 -30 125 -14 52 -27 102 -29 110 -28 104 -180 417 -208 428 -4 2 -8 8
-8 14 0 9 -64 103 -80 118 -3 3 -23 28 -45 55 -62 78 -265 275 -282 275 -5 0
-14 9 -21 20 -7 11 -19 20 -27 20 -8 0 -15 3 -15 8 0 17 -231 160 -365 225
-120 59 -194 90 -290 121 -44 15 -87 30 -95 33 -8 3 -20 7 -26 8 -6 2 -36 10
-65 18 -30 9 -65 18 -79 21 -14 4 -54 13 -90 21 -87 20 -271 51 -350 60 -14 2
-54 6 -90 10 -36 4 -87 9 -115 13 -27 3 -809 7 -1737 9 l-1688 4 0 -3866z
m3030 2712 c25 -3 45 -6 45 -7 0 -1 11 -3 25 -5 49 -5 120 -16 132 -20 7 -2
25 -7 41 -10 68 -13 84 -17 117 -27 19 -6 44 -14 55 -18 11 -5 40 -16 65 -25
64 -24 111 -46 140 -66 14 -9 27 -16 30 -16 26 6 233 -182 260 -235 7 -16 17
-28 22 -28 4 0 8 -5 8 -10 0 -6 11 -28 25 -50 14 -22 23 -40 20 -40 -3 0 1
-10 9 -22 12 -19 41 -107 50 -152 33 -159 38 -372 11 -494 -63 -286 -201 -462
-475 -603 -69 -36 -214 -83 -330 -107 -88 -19 -130 -26 -235 -39 -22 -3 -351
-7 -732 -10 l-692 -4 1 194 c1 107 -2 199 -6 205 -3 6 -2 13 3 17 7 3 7 15 1
29 -5 13 -6 26 -4 29 8 8 9 152 1 164 -4 7 -3 14 2 18 7 3 7 15 1 29 -5 13 -7
26 -4 29 8 8 10 128 2 133 -5 3 -5 10 -2 16 5 8 6 131 3 403 0 6 1 45 2 87 2
43 0 81 -4 84 -4 4 -4 12 0 17 10 16 10 57 0 57 -4 0 -4 8 1 18 5 9 6 26 2 37
-4 11 -4 33 -1 50 4 16 5 41 4 55 -4 29 -4 17 -2 185 0 72 3 133 6 137 4 8
1325 3 1403 -5z"/>
</g>
</svg>
